<?xml version="1.0" encoding="UTF-8" standalone="no"?>
<svg width="270.933mm" height="114.829mm"
 xmlns="http://www.w3.org/2000/svg" xmlns:xlink="http://www.w3.org/1999/xlink"  version="1.2" baseProfile="tiny">
<desc>Created by EvoPdf</desc>
<defs>
</defs>
<g fill="none" stroke="black" stroke-width="1" fill-rule="evenodd" stroke-linecap="square" stroke-linejoin="bevel" >

<g fill="#000000" fill-opacity="1" stroke="#000000" stroke-opacity="1" stroke-width="1" stroke-linecap="square" stroke-linejoin="miter" stroke-miterlimit="2" transform="matrix(1,0,0,1,0,0)"
>
</g>

<g fill="#000000" fill-opacity="1" stroke="#000000" stroke-opacity="1" stroke-width="1" stroke-linecap="square" stroke-linejoin="miter" stroke-miterlimit="2" transform="matrix(1,0,0,1,0,0)"
>
</g>

<g fill="#000000" fill-opacity="1" stroke="#000000" stroke-opacity="1" stroke-width="1" stroke-linecap="square" stroke-linejoin="miter" stroke-miterlimit="2" transform="matrix(1,0,0,1,0,0)"
>
</g>

<g fill="#000000" fill-opacity="1" stroke="#000000" stroke-opacity="1" stroke-width="1" stroke-linecap="square" stroke-linejoin="bevel" transform="matrix(1,0,0,1,0,0)"
>
<text fill="#000000" fill-opacity="1" stroke="none" xml:space="preserve" x="8" y="21" font-family="Courier New" font-size="16" font-weight="700" font-style="normal" 
 >File name: GP_series3_02412.docx</text>
</g>

<g fill="#000000" fill-opacity="1" stroke="#000000" stroke-opacity="1" stroke-width="1" stroke-linecap="square" stroke-linejoin="bevel" transform="matrix(1,0,0,1,0,0)"
>
<text fill="#000000" fill-opacity="1" stroke="none" xml:space="preserve" x="11" y="58" font-family="Courier New" font-size="16" font-weight="700" font-style="normal" 
 >GP</text>
</g>

<g fill="#000000" fill-opacity="1" stroke="#000000" stroke-opacity="1" stroke-width="1" stroke-linecap="square" stroke-linejoin="bevel" transform="matrix(1,0,0,1,0,0)"
>
<text fill="#000000" fill-opacity="1" stroke="none" xml:space="preserve" x="100" y="58" font-family="Courier New" font-size="16" font-weight="700" font-style="normal" 
 >role=&quot;imprint&quot;, name=&quot;</text>
</g>

<g fill="#ddffcc" fill-opacity="1" stroke="none" transform="matrix(1,0,0,1,0,0)"
>
<path vector-effect="none" fill-rule="evenodd" d="M320,45 L500,45 L500,63 L320,63 L320,45"/>
</g>

<g fill="#a52a2a" fill-opacity="1" stroke="#a52a2a" stroke-opacity="1" stroke-width="1" stroke-linecap="square" stroke-linejoin="bevel" transform="matrix(1,0,0,1,0,0)"
>
<text fill="#a52a2a" fill-opacity="1" stroke="none" xml:space="preserve" x="320" y="58" font-family="Courier New" font-size="16" font-weight="700" font-style="normal" 
 >greatest_publisher</text>
</g>

<g fill="#000000" fill-opacity="1" stroke="#000000" stroke-opacity="1" stroke-width="1" stroke-linecap="square" stroke-linejoin="bevel" transform="matrix(1,0,0,1,0,0)"
>
<text fill="#000000" fill-opacity="1" stroke="none" xml:space="preserve" x="500" y="58" font-family="Courier New" font-size="16" font-weight="700" font-style="normal" 
 >&quot;</text>
</g>

<g fill="#000000" fill-opacity="1" stroke="#000000" stroke-opacity="1" stroke-width="1" stroke-linecap="square" stroke-linejoin="bevel" transform="matrix(1,0,0,1,0,0)"
>
<text fill="#000000" fill-opacity="1" stroke="none" xml:space="preserve" x="11" y="80" font-family="Courier New" font-size="16" font-weight="700" font-style="normal" 
 >series3</text>
</g>

<g fill="#000000" fill-opacity="1" stroke="#000000" stroke-opacity="1" stroke-width="1" stroke-linecap="square" stroke-linejoin="bevel" transform="matrix(1,0,0,1,0,0)"
>
<text fill="#000000" fill-opacity="1" stroke="none" xml:space="preserve" x="100" y="80" font-family="Courier New" font-size="16" font-weight="700" font-style="normal" 
 >role=&quot;division&quot;, name=&quot;</text>
</g>

<g fill="#ffddaa" fill-opacity="1" stroke="none" transform="matrix(1,0,0,1,0,0)"
>
<path vector-effect="none" fill-rule="evenodd" d="M330,67 L370,67 L370,85 L330,85 L330,67"/>
</g>

<g fill="#007700" fill-opacity="1" stroke="#007700" stroke-opacity="1" stroke-width="1" stroke-linecap="square" stroke-linejoin="bevel" transform="matrix(1,0,0,1,0,0)"
>
<text fill="#007700" fill-opacity="1" stroke="none" xml:space="preserve" x="330" y="80" font-family="Courier New" font-size="16" font-weight="700" font-style="normal" 
 >book</text>
</g>

<g fill="#000000" fill-opacity="1" stroke="#000000" stroke-opacity="1" stroke-width="1" stroke-linecap="square" stroke-linejoin="bevel" transform="matrix(1,0,0,1,0,0)"
>
<text fill="#000000" fill-opacity="1" stroke="none" xml:space="preserve" x="370" y="80" font-family="Courier New" font-size="16" font-weight="700" font-style="normal" 
 >&quot;; role=&quot;series&quot;, name=&quot;</text>
</g>

<g fill="#ccccff" fill-opacity="1" stroke="none" transform="matrix(1,0,0,1,0,0)"
>
<path vector-effect="none" fill-rule="evenodd" d="M610,67 L680,67 L680,85 L610,85 L610,67"/>
</g>

<g fill="#ff0000" fill-opacity="1" stroke="#ff0000" stroke-opacity="1" stroke-width="1" stroke-linecap="square" stroke-linejoin="bevel" transform="matrix(1,0,0,1,0,0)"
>
<text fill="#ff0000" fill-opacity="1" stroke="none" xml:space="preserve" x="610" y="80" font-family="Courier New" font-size="16" font-weight="700" font-style="normal" 
 >series3</text>
</g>

<g fill="#000000" fill-opacity="1" stroke="#000000" stroke-opacity="1" stroke-width="1" stroke-linecap="square" stroke-linejoin="bevel" transform="matrix(1,0,0,1,0,0)"
>
<text fill="#000000" fill-opacity="1" stroke="none" xml:space="preserve" x="680" y="80" font-family="Courier New" font-size="16" font-weight="700" font-style="normal" 
 >&quot;</text>
</g>

<g fill="#000000" fill-opacity="1" stroke="#000000" stroke-opacity="1" stroke-width="1" stroke-linecap="square" stroke-linejoin="bevel" transform="matrix(1,0,0,1,0,0)"
>
<text fill="#000000" fill-opacity="1" stroke="none" xml:space="preserve" x="11" y="103" font-family="Courier New" font-size="16" font-weight="400" font-style="normal" 
 >02412</text>
</g>

<g fill="#000000" fill-opacity="1" stroke="#000000" stroke-opacity="1" stroke-width="1" stroke-linecap="square" stroke-linejoin="bevel" transform="matrix(1,0,0,1,0,0)"
>
<text fill="#000000" fill-opacity="1" stroke="none" xml:space="preserve" x="100" y="103" font-family="Courier New" font-size="16" font-weight="400" font-style="normal" 
 >role=&quot;work&quot;, name=&quot;02412&quot;</text>
</g>

<g fill="#000000" fill-opacity="1" stroke="#000000" stroke-opacity="1" stroke-width="1" stroke-linecap="square" stroke-linejoin="bevel" transform="matrix(1,0,0,1,0,0)"
>
<text fill="#000000" fill-opacity="1" stroke="none" xml:space="preserve" x="11" y="125" font-family="Courier New" font-size="16" font-weight="400" font-style="normal" 
 >docx</text>
</g>

<g fill="#000000" fill-opacity="1" stroke="#000000" stroke-opacity="1" stroke-width="1" stroke-linecap="square" stroke-linejoin="bevel" transform="matrix(1,0,0,1,0,0)"
>
<text fill="#000000" fill-opacity="1" stroke="none" xml:space="preserve" x="100" y="125" font-family="Courier New" font-size="16" font-weight="400" font-style="normal" 
 >role=&quot;ext&quot;, name=&quot;docx&quot;</text>
</g>

<g fill="#000000" fill-opacity="1" stroke="#000000" stroke-opacity="1" stroke-width="1" stroke-linecap="square" stroke-linejoin="bevel" transform="matrix(1,0,0,1,0,0)"
>
<text fill="#000000" fill-opacity="1" stroke="none" xml:space="preserve" x="8" y="161" font-family="Courier New" font-size="16" font-weight="700" font-style="normal" 
 >a9s</text>
</g>

<g fill="#000000" fill-opacity="1" stroke="#000000" stroke-opacity="1" stroke-width="1" stroke-linecap="square" stroke-linejoin="bevel" transform="matrix(1,0,0,1,0,0)"
>
<text fill="#000000" fill-opacity="1" stroke="none" xml:space="preserve" x="8" y="179" font-family="Courier New" font-size="16" font-weight="700" font-style="normal" 
 >├── common</text>
</g>

<g fill="#000000" fill-opacity="1" stroke="#000000" stroke-opacity="1" stroke-width="1" stroke-linecap="square" stroke-linejoin="bevel" transform="matrix(1,0,0,1,0,0)"
>
<text fill="#000000" fill-opacity="1" stroke="none" xml:space="preserve" x="8" y="197" font-family="Courier New" font-size="16" font-weight="700" font-style="normal" 
 >├── foo_press</text>
</g>

<g fill="#000000" fill-opacity="1" stroke="#000000" stroke-opacity="1" stroke-width="1" stroke-linecap="square" stroke-linejoin="bevel" transform="matrix(1,0,0,1,0,0)"
>
<text fill="#000000" fill-opacity="1" stroke="none" xml:space="preserve" x="8" y="215" font-family="Courier New" font-size="16" font-weight="700" font-style="normal" 
 >│   ├── e_only</text>
</g>

<g fill="#000000" fill-opacity="1" stroke="#000000" stroke-opacity="1" stroke-width="1" stroke-linecap="square" stroke-linejoin="bevel" transform="matrix(1,0,0,1,0,0)"
>
<text fill="#000000" fill-opacity="1" stroke="none" xml:space="preserve" x="8" y="233" font-family="Courier New" font-size="16" font-weight="700" font-style="normal" 
 >│   └── print_first</text>
</g>

<g fill="#000000" fill-opacity="1" stroke="#000000" stroke-opacity="1" stroke-width="1" stroke-linecap="square" stroke-linejoin="bevel" transform="matrix(1,0,0,1,0,0)"
>
<text fill="#000000" fill-opacity="1" stroke="none" xml:space="preserve" x="8" y="251" font-family="Courier New" font-size="16" font-weight="700" font-style="normal" 
 >├── </text>
</g>

<g fill="#ddffcc" fill-opacity="1" stroke="none" transform="matrix(1,0,0,1,0,0)"
>
<path vector-effect="none" fill-rule="evenodd" d="M48,238 L228,238 L228,256 L48,256 L48,238"/>
</g>

<g fill="#a52a2a" fill-opacity="1" stroke="#a52a2a" stroke-opacity="1" stroke-width="1" stroke-linecap="square" stroke-linejoin="bevel" transform="matrix(1,0,0,1,0,0)"
>
<text fill="#a52a2a" fill-opacity="1" stroke="none" xml:space="preserve" x="48" y="251" font-family="Courier New" font-size="16" font-weight="700" font-style="normal" 
 >greatest_publisher</text>
</g>

<g fill="#000000" fill-opacity="1" stroke="#000000" stroke-opacity="1" stroke-width="1" stroke-linecap="square" stroke-linejoin="bevel" transform="matrix(1,0,0,1,0,0)"
>
<text fill="#000000" fill-opacity="1" stroke="none" xml:space="preserve" x="8" y="269" font-family="Courier New" font-size="16" font-weight="700" font-style="normal" 
 >│   ├── </text>
</g>

<g fill="#ffddaa" fill-opacity="1" stroke="none" transform="matrix(1,0,0,1,0,0)"
>
<path vector-effect="none" fill-rule="evenodd" d="M88,256 L128,256 L128,274 L88,274 L88,256"/>
</g>

<g fill="#007700" fill-opacity="1" stroke="#007700" stroke-opacity="1" stroke-width="1" stroke-linecap="square" stroke-linejoin="bevel" transform="matrix(1,0,0,1,0,0)"
>
<text fill="#007700" fill-opacity="1" stroke="none" xml:space="preserve" x="88" y="269" font-family="Courier New" font-size="16" font-weight="700" font-style="normal" 
 >book</text>
</g>

<g fill="#000000" fill-opacity="1" stroke="#000000" stroke-opacity="1" stroke-width="1" stroke-linecap="square" stroke-linejoin="bevel" transform="matrix(1,0,0,1,0,0)"
>
<text fill="#000000" fill-opacity="1" stroke="none" xml:space="preserve" x="8" y="287" font-family="Courier New" font-size="16" font-weight="700" font-style="normal" 
 >│   │   ├── bar</text>
</g>

<g fill="#000000" fill-opacity="1" stroke="#000000" stroke-opacity="1" stroke-width="1" stroke-linecap="square" stroke-linejoin="bevel" transform="matrix(1,0,0,1,0,0)"
>
<text fill="#000000" fill-opacity="1" stroke="none" xml:space="preserve" x="8" y="305" font-family="Courier New" font-size="16" font-weight="700" font-style="normal" 
 >│   │   ├── foo</text>
</g>

<g fill="#000000" fill-opacity="1" stroke="#000000" stroke-opacity="1" stroke-width="1" stroke-linecap="square" stroke-linejoin="bevel" transform="matrix(1,0,0,1,0,0)"
>
<text fill="#000000" fill-opacity="1" stroke="none" xml:space="preserve" x="8" y="323" font-family="Courier New" font-size="16" font-weight="700" font-style="normal" 
 >│   │   └── </text>
</g>

<g fill="#ccccff" fill-opacity="1" stroke="none" transform="matrix(1,0,0,1,0,0)"
>
<path vector-effect="none" fill-rule="evenodd" d="M128,310 L198,310 L198,328 L128,328 L128,310"/>
</g>

<g fill="#ff0000" fill-opacity="1" stroke="#ff0000" stroke-opacity="1" stroke-width="1" stroke-linecap="square" stroke-linejoin="bevel" transform="matrix(1,0,0,1,0,0)"
>
<text fill="#ff0000" fill-opacity="1" stroke="none" xml:space="preserve" x="128" y="323" font-family="Courier New" font-size="16" font-weight="700" font-style="normal" 
 >series3</text>
</g>

<g fill="#000000" fill-opacity="1" stroke="#000000" stroke-opacity="1" stroke-width="1" stroke-linecap="square" stroke-linejoin="bevel" transform="matrix(1,0,0,1,0,0)"
>
<text fill="#000000" fill-opacity="1" stroke="none" xml:space="preserve" x="8" y="341" font-family="Courier New" font-size="16" font-weight="700" font-style="normal" 
 >│   └── journal</text>
</g>

<g fill="#000000" fill-opacity="1" stroke="#000000" stroke-opacity="1" stroke-width="1" stroke-linecap="square" stroke-linejoin="bevel" transform="matrix(1,0,0,1,0,0)"
>
<text fill="#000000" fill-opacity="1" stroke="none" xml:space="preserve" x="8" y="359" font-family="Courier New" font-size="16" font-weight="700" font-style="normal" 
 >│       ├── abc</text>
</g>

<g fill="#000000" fill-opacity="1" stroke="#000000" stroke-opacity="1" stroke-width="1" stroke-linecap="square" stroke-linejoin="bevel" transform="matrix(1,0,0,1,0,0)"
>
<text fill="#000000" fill-opacity="1" stroke="none" xml:space="preserve" x="8" y="377" font-family="Courier New" font-size="16" font-weight="700" font-style="normal" 
 >│       ├── journal2</text>
</g>

<g fill="#000000" fill-opacity="1" stroke="#000000" stroke-opacity="1" stroke-width="1" stroke-linecap="square" stroke-linejoin="bevel" transform="matrix(1,0,0,1,0,0)"
>
<text fill="#000000" fill-opacity="1" stroke="none" xml:space="preserve" x="8" y="395" font-family="Courier New" font-size="16" font-weight="700" font-style="normal" 
 >│       └── xyz</text>
</g>

<g fill="#000000" fill-opacity="1" stroke="#000000" stroke-opacity="1" stroke-width="1" stroke-linecap="square" stroke-linejoin="bevel" transform="matrix(1,0,0,1,0,0)"
>
<text fill="#000000" fill-opacity="1" stroke="none" xml:space="preserve" x="8" y="413" font-family="Courier New" font-size="16" font-weight="700" font-style="normal" 
 >└── imprint3</text>
</g>

<g fill="#000000" fill-opacity="1" stroke="#000000" stroke-opacity="1" stroke-width="1" stroke-linecap="square" stroke-linejoin="miter" stroke-miterlimit="2" transform="matrix(1,0,0,1,0,0)"
>
</g>

<g fill="#000000" fill-opacity="1" stroke="#000000" stroke-opacity="1" stroke-width="1" stroke-linecap="square" stroke-linejoin="miter" stroke-miterlimit="2" transform="matrix(1,0,0,1,0,0)"
>
</g>

<g fill="#000000" fill-opacity="1" stroke="#000000" stroke-opacity="1" stroke-width="1" stroke-linecap="square" stroke-linejoin="miter" stroke-miterlimit="2" transform="matrix(1,0,0,1,0,0)"
>
</g>
</g>
</svg>
