<?xml version="1.0" encoding="utf-8"?>
<!-- Generator: Adobe Illustrator 16.0.3, SVG Export Plug-In . SVG Version: 6.00 Build 0)  -->
<!DOCTYPE svg PUBLIC "-//W3C//DTD SVG 1.1//EN" "http://www.w3.org/Graphics/SVG/1.1/DTD/svg11.dtd">
<svg version="1.1" id="Ebene_1" xmlns="http://www.w3.org/2000/svg" xmlns:xlink="http://www.w3.org/1999/xlink" x="0px" y="0px"
	 width="200px" height="172.898px" viewBox="-38.874 0 200 172.898" enable-background="new -38.874 0 200 172.898"
	 xml:space="preserve">
<g>
	<polygon fill="#B3B3B3" stroke="#FFFFFF" stroke-width="0.5" stroke-miterlimit="10" points="1024.958,414.639 1024.958,414.594 
		1024.919,414.616 	"/>
	<polygon fill="#B3B3B3" stroke="#FFFFFF" stroke-width="0.5" stroke-miterlimit="10" points="928.902,234.222 888.455,234.205 
		888.421,234.285 928.894,234.285 	"/>
	<polygon fill="#B3B3B3" stroke="#FFFFFF" stroke-width="0.5" stroke-miterlimit="10" points="947.037,98.875 947.037,98.787 
		947.023,98.883 	"/>
	<polygon fill="#B3B3B3" stroke="#FFFFFF" stroke-width="0.5" stroke-miterlimit="10" points="947.037,98.787 946.984,98.905 
		947.023,98.883 	"/>
	<polygon fill="#B3B3B3" stroke="#FFFFFF" stroke-width="0.5" stroke-miterlimit="10" points="868.882,234.107 868.804,234.151 
		868.882,234.151 	"/>
	<polygon fill="#B3B3B3" stroke="#FFFFFF" stroke-width="0.5" stroke-miterlimit="10" points="868.882,414.551 868.898,414.561 
		868.882,414.549 	"/>
	<polygon fill="#B3B3B3" stroke="#FFFFFF" stroke-width="0.5" stroke-miterlimit="10" points="868.998,234.175 868.958,234.152 
		868.882,234.151 868.804,234.151 868.919,234.218 	"/>
	<polygon fill="#B3B3B3" stroke="#FFFFFF" stroke-width="0.5" stroke-miterlimit="10" points="1024.919,234.263 928.902,234.222 
		928.894,234.285 1024.958,234.285 	"/>
	<polygon fill="#B3B3B3" stroke="#FFFFFF" stroke-width="0.5" stroke-miterlimit="10" points="712.847,324.371 712.728,324.395 
		712.806,324.397 	"/>
	<polygon fill="#B3B3B3" stroke="#FFFFFF" stroke-width="0.5" stroke-miterlimit="10" points="869.035,234.196 869.035,234.285 
		888.421,234.285 888.455,234.205 	"/>
	<polygon fill="#B3B3B3" stroke="#FFFFFF" stroke-width="0.5" stroke-miterlimit="10" points="1013.927,266.335 922.236,284.01 
		907.767,392.082 985.982,346.854 	"/>
	<polygon fill="#B3B3B3" stroke="#FFFFFF" stroke-width="0.5" stroke-miterlimit="10" points="904.722,414.822 897.906,465.732 
		927.142,516.396 962.439,414.693 	"/>
	<polygon fill="#B3B3B3" stroke="#FFFFFF" stroke-width="0.5" stroke-miterlimit="10" points="985.982,346.854 907.767,392.082 
		904.722,414.822 962.439,414.693 	"/>
	<polygon fill="#B3B3B3" stroke="#FFFFFF" stroke-width="0.5" stroke-miterlimit="10" points="985.982,346.854 962.439,414.693 
		996.765,414.615 1009.55,333.225 	"/>
	<polygon fill="#B3B3B3" stroke="#FFFFFF" stroke-width="0.5" stroke-miterlimit="10" points="962.439,414.693 927.142,516.396 
		969.302,589.459 996.765,414.615 	"/>
	<polygon fill="#B3B3B3" stroke="#FFFFFF" stroke-width="0.5" stroke-miterlimit="10" points="1024.958,414.551 1024.882,414.551 
		1024.882,414.594 1024.882,414.551 996.765,414.615 969.302,589.459 977.83,604.236 1024.882,414.639 	"/>
	<polygon fill="#B3B3B3" stroke="#FFFFFF" stroke-width="0.5" stroke-miterlimit="10" points="996.765,414.615 1024.882,414.551 
		1024.882,414.549 1024.882,414.551 1024.958,414.551 1024.958,324.315 1009.55,333.225 	"/>
	<polygon fill="#B3B3B3" stroke="#FFFFFF" stroke-width="0.5" stroke-miterlimit="10" points="1024.958,414.551 1180.958,234.151 
		1180.88,234.151 1024.958,324.315 	"/>
	<polygon fill="#B3B3B3" stroke="#FFFFFF" stroke-width="0.5" stroke-miterlimit="10" points="1009.55,333.225 1024.958,324.315 
		1024.958,264.208 1020.25,265.115 	"/>
	<polygon fill="#B3B3B3" stroke="#FFFFFF" stroke-width="0.5" stroke-miterlimit="10" points="1024.958,324.315 1180.88,234.151 
		1024.958,264.208 	"/>
	<polygon fill="#B3B3B3" stroke="#FFFFFF" stroke-width="0.5" stroke-miterlimit="10" points="861.876,295.645 790.933,459.645 
		868.898,414.561 868.882,414.551 868.882,414.549 868.898,414.561 907.767,392.082 922.236,284.01 	"/>
	<polygon fill="#B3B3B3" stroke="#FFFFFF" stroke-width="0.5" stroke-miterlimit="10" points="1020.25,265.115 1013.927,266.335 
		985.982,346.854 1009.55,333.225 	"/>
	<polygon fill="#B3B3B3" stroke="#FFFFFF" stroke-width="0.5" stroke-miterlimit="10" points="928.894,234.285 888.421,234.285 
		861.876,295.645 922.236,284.01 	"/>
	<polygon fill="#B3B3B3" stroke="#FFFFFF" stroke-width="0.5" stroke-miterlimit="10" points="1024.958,235.134 1025.113,234.151 
		1025.097,234.151 1024.958,234.552 	"/>
	<polygon fill="#B3B3B3" stroke="#FFFFFF" stroke-width="0.5" stroke-miterlimit="10" points="1013.927,266.335 1020.25,265.115 
		1024.958,235.134 1024.958,234.552 	"/>
	<polygon fill="#B3B3B3" stroke="#FFFFFF" stroke-width="0.5" stroke-miterlimit="10" points="933.945,196.562 895.023,219.022 
		888.478,234.151 928.912,234.151 	"/>
	<polygon fill="#B3B3B3" stroke="#FFFFFF" stroke-width="0.5" stroke-miterlimit="10" points="1024.958,234.285 928.894,234.285 
		922.236,284.01 1013.927,266.335 1024.958,234.552 	"/>
	<polygon fill="#B3B3B3" stroke="#FFFFFF" stroke-width="0.5" stroke-miterlimit="10" points="1024.919,234.263 1024.958,234.285 
		1024.958,234.552 1025.097,234.151 928.912,234.151 928.902,234.222 	"/>
	<polygon fill="#B3B3B3" stroke="#FFFFFF" stroke-width="0.5" stroke-miterlimit="10" points="928.912,234.151 888.478,234.151 
		888.455,234.205 928.902,234.222 	"/>
	<polygon fill="#B3B3B3" stroke="#FFFFFF" stroke-width="0.5" stroke-miterlimit="10" points="977.83,604.236 946.498,730.49 
		985.675,617.829 	"/>
	<polygon fill="#B3B3B3" stroke="#FFFFFF" stroke-width="0.5" stroke-miterlimit="10" points="985.675,617.829 946.498,730.49 
		1009.007,658.262 	"/>
	<polygon fill="#B3B3B3" stroke="#FFFFFF" stroke-width="0.5" stroke-miterlimit="10" points="946.498,730.49 946.576,730.447 
		946.652,730.49 946.652,730.402 1024.65,685.368 1009.007,658.262 	"/>
	<polygon fill="#B3B3B3" stroke="#FFFFFF" stroke-width="0.5" stroke-miterlimit="10" points="907.767,392.082 868.898,414.561 
		868.921,414.573 868.898,414.561 790.933,459.645 790.882,459.762 790.958,459.719 791.037,459.762 791.037,459.674 
		868.576,414.904 904.722,414.822 	"/>
	<polygon fill="#B3B3B3" stroke="#FFFFFF" stroke-width="0.5" stroke-miterlimit="10" points="904.722,414.822 868.576,414.904 
		897.906,465.732 	"/>
	<polygon fill="#B3B3B3" stroke="#FFFFFF" stroke-width="0.5" stroke-miterlimit="10" points="868.576,414.904 868.421,685.368 
		868.498,685.368 897.906,465.732 	"/>
	<polygon fill="#B3B3B3" stroke="#FFFFFF" stroke-width="0.5" stroke-miterlimit="10" points="790.882,459.674 790.882,459.762 
		790.933,459.645 	"/>
	<polygon fill="#B3B3B3" stroke="#FFFFFF" stroke-width="0.5" stroke-miterlimit="10" points="861.876,295.645 806.46,306.326 
		712.728,414.639 712.882,414.641 790.882,459.674 790.933,459.645 	"/>
	<polygon fill="#B3B3B3" stroke="#FFFFFF" stroke-width="0.5" stroke-miterlimit="10" points="712.847,324.371 712.806,324.397 
		712.728,324.395 712.728,414.639 806.46,306.326 	"/>
	<polygon fill="#B3B3B3" stroke="#FFFFFF" stroke-width="0.5" stroke-miterlimit="10" points="1024.958,414.594 1025.035,414.639 
		1025.035,414.549 1181.341,324.395 1180.958,324.172 1180.958,234.151 1024.958,414.551 	"/>
	<polygon fill="#B3B3B3" stroke="#FFFFFF" stroke-width="0.5" stroke-miterlimit="10" points="1024.728,685.368 1024.728,685.323 
		1024.65,685.368 	"/>
	<polygon fill="#B3B3B3" stroke="#FFFFFF" stroke-width="0.5" stroke-miterlimit="10" points="1024.65,595.125 1024.65,505.748 
		985.675,617.829 1009.007,658.262 1024.65,640.187 1024.65,595.367 	"/>
	<polygon fill="#B3B3B3" stroke="#FFFFFF" stroke-width="0.5" stroke-miterlimit="10" points="1024.882,414.639 977.83,604.236 
		985.675,617.829 1024.65,505.748 1024.65,505.125 1024.832,505.229 1024.882,414.682 1024.958,414.639 1024.919,414.616 
		1024.958,414.594 1024.958,414.551 	"/>
	<polygon fill="#B3B3B3" stroke="#FFFFFF" stroke-width="0.5" stroke-miterlimit="10" points="1009.007,658.262 1024.65,685.368 
		1024.65,640.187 	"/>
	<polygon fill="#B3B3B3" stroke="#FFFFFF" stroke-width="0.5" stroke-miterlimit="10" points="897.906,465.732 868.498,685.368 
		927.142,516.396 	"/>
	<polygon fill="#B3B3B3" stroke="#FFFFFF" stroke-width="0.5" stroke-miterlimit="10" points="969.302,589.459 946.24,728.98 
		969.302,589.459 927.142,516.396 868.498,685.368 946.498,730.402 946.498,730.49 977.83,604.236 	"/>
	<polygon fill="#B3B3B3" stroke="#FFFFFF" stroke-width="0.5" stroke-miterlimit="10" points="1025.113,234.151 1180.88,234.151 
		1102.88,189.119 1102.88,189.03 1102.804,189.075 1102.728,189.03 1102.728,189.119 1025.189,233.886 1025.097,234.151 	"/>
	<polygon fill="#B3B3B3" stroke="#FFFFFF" stroke-width="0.5" stroke-miterlimit="10" points="928.912,234.151 1025.097,234.151 
		1025.189,233.886 1025.189,143.908 933.945,196.562 	"/>
	<polygon fill="#B3B3B3" stroke="#FFFFFF" stroke-width="0.5" stroke-miterlimit="10" points="947.023,98.883 933.945,196.562 
		1025.189,143.908 947.189,98.875 947.189,98.787 947.113,98.831 947.037,98.787 947.037,98.875 	"/>
	<polygon fill="#B3B3B3" stroke="#FFFFFF" stroke-width="0.5" stroke-miterlimit="10" points="1024.958,235.134 1024.958,264.208 
		1180.88,234.151 1025.113,234.151 	"/>
	<polygon fill="#B3B3B3" stroke="#FFFFFF" stroke-width="0.5" stroke-miterlimit="10" points="1024.958,264.208 1024.958,235.134 
		1020.25,265.115 	"/>
	<path fill="#B3B3B3" stroke="#FFFFFF" stroke-width="0.5" stroke-miterlimit="10" d="M868.804,234.285l-77.922,44.988l0.037,0.022
		l-0.037,0.021l-0.076-0.044v0.089l-77.959,45.008l93.613-18.045L868.804,234.285z M790.96,279.363v-0.044V279.363z"/>
	<polygon fill="#B3B3B3" stroke="#FFFFFF" stroke-width="0.5" stroke-miterlimit="10" points="933.945,196.562 947.023,98.883 
		946.984,98.905 895.023,219.022 	"/>
	<polygon fill="#B3B3B3" stroke="#FFFFFF" stroke-width="0.5" stroke-miterlimit="10" points="946.984,98.905 869.037,143.909 
		868.882,143.908 868.882,234.107 895.023,219.022 	"/>
	<polygon fill="#B3B3B3" stroke="#FFFFFF" stroke-width="0.5" stroke-miterlimit="10" points="861.876,295.645 888.421,234.285 
		869.035,234.285 869.035,234.196 888.455,234.205 888.478,234.151 868.882,234.151 868.958,234.152 868.998,234.175 
		868.919,234.218 868.804,234.151 868.804,234.285 806.46,306.326 	"/>
	<polygon fill="#B3B3B3" stroke="#FFFFFF" stroke-width="0.5" stroke-miterlimit="10" points="888.478,234.151 895.023,219.022 
		868.882,234.107 868.882,234.151 	"/>
	<polygon fill="#B3B3B3" stroke="#FFFFFF" stroke-width="0.5" stroke-miterlimit="10" points="1024.753,640.066 1024.728,685.323 
		1102.804,640.247 1102.804,550.004 1102.593,550.125 	"/>
	<polygon fill="#B3B3B3" stroke="#FFFFFF" stroke-width="0.5" stroke-miterlimit="10" points="1102.593,550.125 1024.832,505.229 
		1024.753,640.066 	"/>
	<polygon fill="#B3B3B3" stroke="#FFFFFF" stroke-width="0.5" stroke-miterlimit="10" points="1024.65,595.125 1024.65,595.367 
		1024.65,640.187 1024.753,640.066 1024.832,505.229 1024.65,505.748 	"/>
	<polygon fill="#B3B3B3" stroke="#FFFFFF" stroke-width="0.5" stroke-miterlimit="10" points="1024.65,505.748 1024.832,505.229 
		1024.65,505.125 	"/>
	<polygon fill="#B3B3B3" stroke="#FFFFFF" stroke-width="0.5" stroke-miterlimit="10" points="1024.65,640.187 1024.65,685.368 
		1024.728,685.323 1024.753,640.066 	"/>
</g>
<polygon fill="#F39200" points="45.118,87.962 45.123,87.965 45.118,87.962 45.051,88.034 77.474,144.222 77.492,144.222 
	77.539,69.215 "/>
<polygon fill="#EC6608" points="32.068,65.489 12.621,69.239 12.612,69.244 12.596,69.243 12.596,87.99 12.628,87.99 28.832,97.346 
	28.842,97.34 109.852,50.496 "/>
<polygon fill="#E74011" points="61.236,22.448 61.228,22.453 28.809,97.394 53.081,83.359 "/>
<polygon fill="#F39200" points="77.548,88.04 77.533,88.058 61.248,153.674 61.264,153.666 61.28,153.674 61.28,153.656 
	77.483,144.301 77.5,144.301 77.533,88.067 77.548,88.058 77.541,88.054 77.548,88.049 "/>
<polygon fill="#F39200" points="45.048,50.486 45.048,50.496 45.064,50.496 45.072,50.5 45.056,50.509 45.032,50.496 32.081,65.489 
	12.608,87.99 12.64,87.99 28.844,97.346 28.855,97.34 43.593,63.271 49.107,50.523 45.08,50.505 49.119,50.496 "/>
<polygon fill="#A42423" points="61.316,22.432 61.316,22.413 61.3,22.422 61.285,22.413 61.285,22.432 61.282,22.433 58.564,42.725 
	57.519,50.535 44.972,144.244 77.476,50.59 77.476,50.535 77.501,50.535 77.52,50.479 77.52,31.787 "/>
<polygon fill="#E74011" points="45.012,31.777 44.98,31.777 44.98,50.515 44.98,50.524 49.051,50.524 61.206,22.428 "/>
<polygon fill="#F39200" points="109.691,69.247 109.691,50.545 77.285,88.021 77.285,88.03 77.3,88.04 77.3,88.021 109.771,69.292 
	"/>
<polygon fill="#BD1D1D" points="109.798,50.518 44.986,87.996 44.991,87.999 44.986,87.996 44.919,88.067 77.391,87.994 
	77.408,87.994 109.815,50.518 "/>
<polygon fill="#F39200" points="45.012,88.057 44.98,144.244 44.996,144.244 52.521,88.04 "/>
<polygon fill="#F39200" points="77.548,88.04 77.533,88.04 71.691,88.053 61.248,153.674 77.533,88.058 "/>
<polygon fill="#BD1D1D" points="44.847,50.577 44.847,50.559 44.816,50.549 44.832,50.549 44.84,50.554 44.824,50.563 
	44.799,50.549 44.799,50.577 12.4,69.292 109.632,50.549 "/>
<polygon fill="#BD1D1D" points="77.513,50.496 75.192,57.182 69.387,73.909 57.163,109.13 44.98,144.233 61.184,153.589 
	61.184,153.607 65.921,124.309 74.283,71.078 76.505,56.929 77.516,50.496 "/>
<polygon fill="#E74011" points="77.35,50.549 109.708,50.549 93.505,41.194 93.505,41.176 93.49,41.185 93.474,41.176 
	93.474,41.194 77.365,50.495 77.346,50.549 "/>
<polygon fill="#F39200" points="93.63,116.205 61.203,153.674 61.219,153.666 61.235,153.674 61.235,153.656 93.673,134.927 
	93.673,116.179 "/>
<polygon fill="#E74011" points="93.673,116.137 77.52,106.81 77.482,106.918 77.482,106.918 69.384,130.202 61.246,153.607 
	74.232,138.602 75.312,137.354 "/>
</svg>
